<svg version="1.1" id="Layer_1" xmlns="http://www.w3.org/2000/svg" xmlns:xlink="http://www.w3.org/1999/xlink" x="0px" y="0px"
	 width="100%" viewBox="0 0 1024 1024" enable-background="new 0 0 1024 1024" xml:space="preserve">
<path fill="#000000" opacity="1.000000" stroke="none" 
	d="
M461.947845,808.115967 
	C463.348785,804.759277 465.639923,804.087402 468.595703,804.911621 
	C469.076935,805.045837 469.545013,805.233337 470.031158,805.342957 
	C478.997620,807.364990 479.028534,807.359253 480.190582,816.146851 
	C483.483063,841.045166 486.758942,865.945740 490.015625,890.848755 
	C490.706390,896.130981 490.148315,896.615601 484.782745,895.466797 
	C471.509033,892.624573 473.562469,893.942139 472.356232,882.872437 
	C470.608704,866.835876 468.652496,850.822144 466.795898,834.797424 
	C466.588470,833.007141 466.574371,831.175354 465.067963,829.089661 
	C462.063416,834.554688 459.161133,839.710388 456.375519,844.928345 
	C451.747284,853.597900 447.114166,862.266724 442.650330,871.021179 
	C440.990112,874.277283 439.173798,875.609375 435.193817,874.661255 
	C426.004974,872.472290 426.236572,872.700195 425.582520,863.514465 
	C424.521545,848.614136 423.035797,833.744019 421.599243,817.378723 
	C414.337524,830.083557 407.761566,841.555359 401.220642,853.047180 
	C398.254303,858.258789 394.985321,863.343079 392.540924,868.793396 
	C390.395386,873.577209 387.451691,874.755493 382.740906,873.168823 
	C379.627472,872.120300 376.133118,872.302124 373.025604,870.230530 
	C373.578003,865.915283 376.646088,862.863953 378.717957,859.403687 
	C390.954926,838.966431 403.574707,818.755249 415.589813,798.190002 
	C419.346893,791.759277 423.804535,795.560608 428.147003,795.853394 
	C432.071014,796.118042 433.200775,798.438660 433.492889,802.199768 
	C434.587769,816.296387 436.039734,830.365112 437.335419,844.446350 
	C437.484619,846.067871 437.458405,847.711121 438.772278,849.573242 
	C446.535278,835.689148 454.156342,822.058899 461.947845,808.115967 
z"/>
<path fill="#000000" opacity="1.000000" stroke="none" 
	d="
M190.102875,661.151428 
	C197.184464,653.168701 205.696625,648.127380 215.695343,645.887085 
	C232.956268,642.019592 248.721436,648.703613 259.508820,664.722168 
	C265.075989,672.989075 269.811096,681.812134 275.090363,690.278992 
	C277.346222,693.896851 274.666473,694.973389 272.424377,696.327820 
	C253.632492,707.679871 234.857300,719.060425 215.989410,730.285034 
	C212.207062,732.535217 208.551758,737.225891 204.407288,736.093323 
	C200.597107,735.052063 199.370728,729.436157 197.175140,725.771057 
	C190.961548,715.398621 183.834518,705.466858 181.603973,693.119568 
	C179.447769,681.183594 182.435883,670.766724 190.102875,661.151428 
M228.195419,660.261841 
	C226.698273,660.260864 225.198181,660.197571 223.704453,660.268555 
	C205.924866,661.112793 192.287918,678.924927 196.471649,695.880493 
	C198.055893,702.301086 202.015564,707.547729 205.150421,713.212769 
	C206.747177,716.098267 208.292099,716.492432 211.053345,714.801147 
	C225.238602,706.112488 239.475693,697.507751 253.744904,688.957458 
	C256.232849,687.466675 256.991730,685.902283 255.293198,683.338623 
	C252.813644,679.596130 250.668716,675.615479 248.003967,672.015564 
	C243.289688,665.646912 237.229248,661.214539 228.195419,660.261841 
z"/>
<path fill="#000000" opacity="1.000000" stroke="none" 
	d="
M822.088135,475.018707 
	C812.544250,468.359222 807.524597,459.117157 804.903015,448.487427 
	C802.674316,439.450409 800.915161,430.298065 798.912415,421.204620 
	C798.192810,417.936890 798.769592,416.126221 802.680054,415.345184 
	C827.481079,410.391602 852.229675,405.174377 876.983398,399.986023 
	C880.105896,399.331543 881.688660,400.422150 882.273499,403.503387 
	C884.411438,414.766449 887.642822,425.838226 888.466980,437.330505 
	C890.707703,468.579041 865.114014,484.275513 840.471008,481.872406 
	C833.942505,481.235779 827.779236,479.169281 822.088135,475.018707 
M831.285156,463.340393 
	C843.340271,468.916504 858.429443,466.462097 867.334900,457.402588 
	C876.195557,448.388611 877.015381,435.514282 870.562744,417.593231 
	C852.054321,421.504150 833.466797,425.431824 814.421875,429.456116 
	C815.710327,435.187561 816.763855,440.207245 817.976074,445.188354 
	C819.824097,452.782379 823.803223,458.905731 831.285156,463.340393 
z"/>
<path fill="#000000" opacity="1.000000" stroke="none" 
	d="
M282.370697,818.626709 
	C277.903564,815.903381 277.363220,813.393677 280.927277,809.428589 
	C287.257965,802.385620 293.032440,794.841248 299.001648,787.475891 
	C300.119995,786.095947 301.587311,784.869080 301.710846,782.582275 
	C300.448242,782.269653 299.205627,781.928467 297.948181,781.655762 
	C285.267914,778.906250 278.224182,767.635925 281.309692,755.016724 
	C284.275360,742.887451 294.424194,733.659180 306.263153,732.326660 
	C316.488342,731.175781 329.149261,739.276733 334.978210,749.853088 
	C339.022278,757.190857 339.134949,762.741272 333.032623,769.631592 
	C318.600647,785.927124 305.109528,803.065369 291.484070,820.060181 
	C287.346344,825.221130 285.433105,820.281799 282.370697,818.626709 
M303.348450,747.685059 
	C299.831726,750.380310 297.059692,753.648071 295.792480,757.969360 
	C294.202545,763.391052 296.832245,769.707214 301.577209,772.098877 
	C306.115234,774.386230 310.867798,773.055115 314.671753,768.402466 
	C316.462616,766.211975 318.216278,763.991028 319.984497,761.782043 
	C324.416504,756.245239 324.049255,753.201050 318.399384,748.708984 
	C313.898224,745.130188 309.102356,744.546265 303.348450,747.685059 
z"/>
<path fill="#000000" opacity="1.000000" stroke="none" 
	d="
M252.093521,368.097168 
	C250.549210,369.074097 249.300659,369.861816 247.606308,370.930817 
	C253.408279,375.421600 259.753082,378.301056 265.791260,381.593536 
	C270.037689,383.908997 271.172577,385.923950 268.381134,390.394073 
	C263.734222,397.835480 264.039429,397.961761 256.123901,393.476715 
	C238.605972,383.550964 221.042313,373.705780 203.546646,363.741058 
	C201.749207,362.717346 198.108368,362.246063 199.632767,359.150940 
	C201.086334,356.199677 201.482635,351.623413 206.516449,351.772125 
	C207.136795,351.790405 207.759964,351.713287 208.563156,351.670807 
	C208.563156,349.952087 208.604141,348.484131 208.556870,347.018982 
	C208.046127,331.184509 222.517426,319.817719 237.717163,324.240479 
	C245.412308,326.479584 252.070770,330.443481 256.803345,337.110077 
	C263.892151,347.095856 262.027710,359.879761 252.093521,368.097168 
M246.878784,353.310974 
	C246.611588,345.184082 242.829361,340.764893 234.469070,338.811310 
	C228.573929,337.433746 222.490005,340.135773 219.611008,345.410095 
	C216.852264,350.464142 218.018616,354.855103 222.936554,357.656464 
	C226.555298,359.717804 230.247360,361.650757 233.859100,363.723938 
	C236.500320,365.239990 238.922852,364.985687 241.299347,363.198822 
	C244.348160,360.906616 246.580032,358.129150 246.878784,353.310974 
z"/>
<path fill="#000000" opacity="1.000000" stroke="none" 
	d="
M757.081177,750.923096 
	C758.292419,753.325684 762.582397,754.836487 759.493408,757.690613 
	C756.799500,760.179932 754.372314,765.292175 749.378235,761.247681 
	C747.891724,761.672729 747.935608,762.913025 747.801758,763.761658 
	C745.361450,779.236023 725.088196,789.237732 708.988159,775.200073 
	C696.220642,764.068115 694.055603,747.829895 704.239441,736.913330 
	C707.963867,732.920959 712.836548,731.477478 718.817322,730.047424 
	C714.113037,724.662476 709.715149,719.805725 705.545471,714.760437 
	C704.052063,712.953430 700.796143,711.209412 702.242065,708.642090 
	C704.168030,705.222778 707.362915,702.444641 710.998413,700.742249 
	C713.018127,699.796570 714.135376,702.160278 715.284302,703.460083 
	C729.169067,719.166748 743.010559,734.911682 757.081177,750.923096 
M739.548462,754.166870 
	C736.731628,749.625244 732.671692,746.125244 729.362854,741.999512 
	C726.863770,738.883484 723.843445,738.747437 720.444458,740.045349 
	C714.162170,742.444031 710.896423,748.616150 712.375854,755.294861 
	C713.802856,761.736877 721.517761,767.324768 728.399353,766.900574 
	C735.262817,766.477478 739.027588,762.474304 739.548462,754.166870 
z"/>
<path fill="#000000" opacity="1.000000" stroke="none" 
	d="
M823.110962,351.761475 
	C814.603760,350.110565 806.398682,348.253113 797.426514,346.222046 
	C797.895508,359.983795 792.900024,370.919434 783.393372,380.273895 
	C779.797119,377.055237 778.133301,373.032532 776.162842,369.277618 
	C775.003052,367.067505 777.074036,365.581940 778.213745,364.041809 
	C783.700134,356.627686 786.382690,348.594421 784.035889,338.713470 
	C778.472595,340.914703 773.811096,344.075287 769.188477,347.139923 
	C765.293457,349.722198 763.337646,349.012909 761.083801,345.005035 
	C755.537292,335.142090 755.425537,337.401154 764.464844,331.889679 
	C785.089294,319.314453 805.834900,306.936920 826.392273,294.253784 
	C830.432739,291.761017 832.335632,292.618347 834.511169,296.491028 
	C840.008911,306.277283 840.279968,304.009735 831.133789,309.629852 
	C818.957397,317.112061 806.695496,324.455048 793.923767,332.188812 
	C798.506226,334.603668 802.990601,335.243988 807.272156,335.639893 
	C817.254150,336.562927 820.410156,343.856201 823.110962,351.761475 
z"/>
<path fill="#000000" opacity="1.000000" stroke="none" 
	d="
M645.665955,187.343506 
	C649.689758,194.267853 653.938782,200.652756 655.498596,208.350739 
	C659.037781,225.817261 644.647583,240.193344 627.110046,236.636063 
	C619.786377,235.150558 613.315369,231.994690 607.542358,227.225876 
	C604.421692,224.648087 603.220825,222.036972 605.455017,218.234299 
	C606.684692,216.141220 607.379822,213.734039 608.225586,211.687180 
	C610.805786,211.350128 611.619324,213.080719 612.734375,214.179779 
	C616.355713,217.749146 620.540833,220.451004 625.317749,222.071823 
	C629.430176,223.467209 633.585693,223.512711 636.986633,220.212418 
	C640.233337,217.061813 641.210144,213.374557 639.892578,208.841446 
	C638.235474,203.140091 635.055603,198.294296 632.153381,193.258560 
	C627.853882,185.798370 624.486023,178.191818 626.690369,169.144638 
	C629.773376,156.491043 640.957397,149.467224 653.586914,152.614304 
	C658.997375,153.962555 663.790466,156.500702 668.178711,159.964478 
	C671.500549,162.586548 672.839111,165.368301 670.617188,169.399826 
	C669.434509,171.545700 668.703613,173.940598 667.838013,176.054199 
	C665.282715,176.428085 664.669189,174.516983 663.613831,173.405060 
	C661.054565,170.708527 658.223633,168.461227 654.717102,167.143204 
	C651.239563,165.836060 647.675964,165.513748 644.933838,168.355148 
	C642.209290,171.178345 640.607605,174.642151 641.896912,178.821655 
	C642.784058,181.697433 643.851013,184.479095 645.665955,187.343506 
z"/>
<path fill="#000000" opacity="1.000000" stroke="none" 
	d="
M398.820251,173.037598 
	C396.769867,165.759644 394.877045,158.855362 392.822357,151.999588 
	C391.887268,148.879608 392.407440,147.178619 395.939331,146.233551 
	C406.708191,143.352066 417.399689,140.175507 428.086548,136.997009 
	C431.138367,136.089325 432.935425,136.751114 433.423523,140.058563 
	C433.519775,140.710815 433.804352,141.333633 433.980560,141.975937 
	C435.802399,148.617508 435.800659,148.615952 429.338531,150.507553 
	C424.387848,151.956741 419.472748,153.545502 414.476227,154.813675 
	C411.452789,155.581055 410.854004,157.135635 411.707581,159.918732 
	C413.073944,164.373825 414.287750,168.877228 415.490692,173.380325 
	C416.231415,176.153091 417.664886,177.205688 420.609314,176.277130 
	C425.212494,174.825470 429.955566,173.809219 434.535675,172.294876 
	C439.337952,170.707092 439.317566,174.454468 440.100586,177.107452 
	C440.889038,179.778687 442.872314,182.967117 438.057617,184.228378 
	C433.714905,185.366013 429.477020,186.927673 425.108246,187.935196 
	C421.180389,188.841049 420.015869,190.471283 421.373993,194.560135 
	C424.097870,202.760666 426.173767,211.174255 428.767059,219.421310 
	C430.005737,223.360504 429.440704,225.340088 424.974152,226.517548 
	C412.972046,229.681534 415.255707,230.272858 412.085205,219.508713 
	C407.571899,204.185486 403.291565,188.793610 398.820251,173.037598 
z"/>
<path fill="#000000" opacity="1.000000" stroke="none" 
	d="
M757.523254,682.325195 
	C769.706360,676.495789 780.989197,678.704407 790.421631,688.509399 
	C798.409302,696.812317 799.817078,707.666016 794.301514,718.422729 
	C788.592957,729.555847 776.992004,736.327087 765.753113,734.244324 
	C754.425781,732.145020 746.220459,725.397949 742.953369,714.297668 
	C739.517029,702.622437 744.779114,693.276489 753.157104,685.417480 
	C754.356018,684.292847 755.844360,683.476685 757.523254,682.325195 
M773.096313,720.675354 
	C778.982605,719.518188 782.599060,715.960022 783.609192,710.100891 
	C784.787292,703.267761 781.321960,698.606140 775.835754,695.165894 
	C769.756165,691.353699 763.306152,692.124573 759.168152,697.047180 
	C754.400024,702.719421 754.441589,709.760559 759.422363,715.091919 
	C762.874695,718.787170 767.159363,720.793701 773.096313,720.675354 
z"/>
<path fill="#000000" opacity="1.000000" stroke="none" 
	d="
M223.434998,432.505920 
	C212.796570,440.418060 198.204788,439.654785 188.133606,430.903137 
	C178.949951,422.922729 177.116592,409.326996 183.562851,397.007202 
	C190.245697,384.235291 203.656143,379.387054 217.088211,384.886902 
	C231.351639,390.727142 237.294388,403.365417 232.764053,418.182007 
	C231.066528,423.733795 228.164291,428.498138 223.434998,432.505920 
M205.570389,397.023438 
	C197.449219,397.757660 193.470566,401.361115 193.041443,408.370880 
	C192.557831,416.270874 197.109238,422.018341 205.031372,423.511658 
	C212.795547,424.975189 218.293076,421.936035 220.736725,414.829407 
	C223.850708,405.773315 217.783447,398.234406 205.570389,397.023438 
z"/>
<path fill="#000000" opacity="1.000000" stroke="none" 
	d="
M487.323822,212.469421 
	C473.246674,221.703339 459.919769,215.432098 457.793976,198.786362 
	C456.616486,189.566238 455.907196,180.287170 454.833069,171.052551 
	C454.463196,167.872391 455.721954,166.373169 458.748779,166.050629 
	C459.079102,166.015427 459.405212,165.942184 459.734253,165.893234 
	C468.437805,164.598389 469.300934,165.288132 470.141907,173.975845 
	C470.830475,181.088989 471.479523,188.208328 472.338715,195.301605 
	C472.814209,199.227371 473.980347,202.994873 478.672028,203.749573 
	C483.611237,204.544128 487.020630,202.186569 489.161987,197.882599 
	C492.324188,191.526794 490.659424,184.828659 490.373322,178.243057 
	C490.279846,176.091232 489.825775,173.956131 489.709808,171.804031 
	C489.261261,163.480560 489.323090,163.679077 497.692841,162.178711 
	C502.309113,161.351181 503.945038,162.803665 504.309326,167.408936 
	C505.344696,180.497345 506.636017,193.569519 508.096191,206.617905 
	C508.554138,210.710373 507.258606,212.196442 503.201996,212.681656 
	C495.201660,213.638626 495.228241,213.860947 493.254822,206.899750 
	C491.416321,208.635391 489.510132,210.434967 487.323822,212.469421 
z"/>
<path fill="#000000" opacity="1.000000" stroke="none" 
	d="
M649.828369,779.710205 
	C651.543030,776.428833 653.420471,773.677124 655.879700,771.394775 
	C663.432434,764.385437 671.990234,759.784790 682.559509,762.855347 
	C693.699585,766.091736 699.744019,774.508545 702.271912,785.343384 
	C705.813599,800.523560 691.978088,817.016602 676.672791,816.316772 
	C668.981873,815.965088 661.075806,809.725037 658.711731,802.434998 
	C657.890625,799.902954 659.000854,798.745728 660.909851,797.663818 
	C666.697510,794.383728 672.480408,791.094482 678.229675,787.747803 
	C680.774719,786.266235 683.530823,785.057251 685.566711,782.907837 
	C682.282288,776.468018 675.565186,773.890076 669.167236,776.541077 
	C664.754211,778.369568 661.478882,781.712097 658.284302,785.127136 
	C657.171082,786.317261 656.438660,787.944641 654.317078,788.473877 
	C652.052246,786.149475 649.123535,784.129761 649.828369,779.710205 
M678.201111,799.538635 
	C677.104004,800.439758 675.372864,800.695801 675.128052,802.601440 
	C677.542847,805.285461 680.301514,805.230652 683.138245,803.437744 
	C686.416016,801.366333 688.803223,798.715454 688.382263,793.857544 
	C684.860168,795.822937 681.832581,797.512390 678.201111,799.538635 
z"/>
<path fill="#000000" opacity="1.000000" stroke="none" 
	d="
M337.593933,811.367920 
	C330.832672,803.195068 330.361542,793.847595 335.809387,785.195068 
	C337.637512,782.291504 339.487183,781.958618 342.382507,783.674438 
	C348.685913,787.409790 355.121948,790.922668 361.529724,794.479736 
	C363.381561,795.507629 365.321838,796.376282 367.072113,797.243896 
	C372.506348,791.362915 368.848816,781.496826 362.317535,778.444092 
	C357.303864,776.100708 351.823273,775.465393 346.727875,773.696106 
	C347.798279,765.902405 349.953827,764.089783 357.017029,764.793762 
	C370.729126,766.160400 381.563354,775.198486 383.412079,786.812866 
	C385.174988,797.888245 378.899292,810.980774 369.372742,816.101990 
	C359.335907,821.497559 346.863953,819.729492 337.593933,811.367920 
M356.939972,806.855835 
	C358.380798,806.462280 359.924988,805.823242 357.856079,804.429932 
	C353.850830,801.732605 349.684021,799.256775 344.890839,797.486572 
	C344.496429,804.452148 349.038727,807.927307 356.939972,806.855835 
z"/>
<path fill="#000000" opacity="1.000000" stroke="none" 
	d="
M723.548218,283.808167 
	C724.025269,286.409149 728.006348,287.380951 725.395203,290.929749 
	C722.725464,294.558197 720.178223,295.645660 716.259827,293.176910 
	C712.506470,290.812103 708.919312,288.331879 708.725830,283.367554 
	C708.629395,280.893402 707.209229,280.484558 705.229614,280.099731 
	C700.591492,279.198181 696.368591,277.317780 692.772461,274.157776 
	C687.251953,269.306702 685.614380,263.550049 688.285278,258.253906 
	C691.476135,251.926376 698.695557,248.386429 705.441650,250.363129 
	C710.693481,251.901993 715.816223,253.942337 720.877808,256.045135 
	C723.558655,257.158875 725.554199,257.482452 727.000366,254.407700 
	C728.355652,251.526215 728.521423,248.941345 725.659363,246.903397 
	C722.222168,244.455948 718.285889,243.098877 714.283813,241.932175 
	C711.753357,241.194504 709.743225,240.114059 711.502380,237.087479 
	C712.970093,234.562164 712.437744,229.576767 717.678101,231.231567 
	C724.853699,233.497452 731.744080,236.471741 737.447632,241.544571 
	C743.985596,247.359558 744.975525,253.328171 740.051086,260.530273 
	C736.308044,266.004639 731.837891,270.983978 727.657166,276.156006 
	C725.867432,278.370087 724.146851,280.602173 723.548218,283.808167 
M704.038574,260.847351 
	C699.685669,263.800873 699.500366,266.645325 703.467896,269.607361 
	C709.073608,273.792328 714.302368,272.250336 717.095764,265.414948 
	C713.238831,263.192566 709.218811,261.389954 704.038574,260.847351 
z"/>
<path fill="#000000" opacity="1.000000" stroke="none" 
	d="
M233.095123,617.638550 
	C228.357910,630.964722 214.352982,638.815002 200.623566,636.188538 
	C189.009293,633.966614 179.235107,621.357300 179.682617,609.173340 
	C180.014313,600.142029 188.434387,591.381836 197.421753,590.336670 
	C200.463837,589.982788 201.173325,591.715820 201.869629,593.850342 
	C204.342941,601.432068 206.770538,609.028809 209.272141,616.601135 
	C210.870499,621.439331 212.192627,621.763306 216.155762,618.432556 
	C221.113724,614.265747 222.447540,608.040710 219.537689,601.715515 
	C218.502213,599.464661 217.042114,597.409607 215.781082,595.262024 
	C214.616730,593.279175 212.633545,591.816589 212.029663,589.488281 
	C218.138748,584.489624 220.447708,584.507812 225.404037,590.027039 
	C232.385590,597.801636 235.246704,606.837219 233.095123,617.638550 
M196.623199,620.609680 
	C197.989853,621.091919 200.038269,622.172424 199.291336,619.295044 
	C198.118088,614.775452 196.422806,610.391357 194.830307,605.593506 
	C189.564377,610.435974 190.181519,614.828003 196.623199,620.609680 
z"/>
<path fill="#000000" opacity="1.000000" stroke="none" 
	d="
M213.908203,478.986206 
	C217.095551,485.761230 219.099564,492.400024 218.004623,499.599762 
	C215.839691,513.835022 204.738419,522.946533 190.787918,521.997925 
	C175.778671,520.977356 165.255844,510.620789 164.686554,496.309082 
	C164.089142,481.290131 173.275085,472.529205 188.259048,473.630554 
	C191.956238,473.902283 193.087418,475.499512 192.788849,479.096771 
	C192.128723,487.050140 191.851212,495.034424 191.286530,502.996826 
	C190.980484,507.312317 192.582306,508.296082 196.595154,506.895844 
	C203.753235,504.398132 207.599289,498.557556 206.388626,491.046722 
	C205.704941,486.805176 204.653381,482.622925 203.692017,478.055206 
	C207.165222,476.730103 210.479813,475.522461 213.908203,478.986206 
M180.566040,487.722504 
	C177.182617,488.060303 176.305679,490.498505 176.044754,493.303284 
	C175.638931,497.665497 176.901154,501.333679 181.239548,504.526947 
	C181.673981,498.555786 182.134354,493.345245 180.566040,487.722504 
z"/>
<path fill="#000000" opacity="1.000000" stroke="none" 
	d="
M263.752991,327.815369 
	C242.453766,321.584747 234.915115,300.669891 247.500290,283.720032 
	C255.307022,273.205872 271.045074,272.687225 279.790222,282.479462 
	C282.163269,285.136627 280.983124,286.727966 279.173340,288.806549 
	C273.076782,295.808655 267.104126,302.918640 261.148499,309.911682 
	C266.515991,316.319550 275.058624,316.027954 280.350677,309.628448 
	C282.918091,306.523773 284.642944,302.914734 286.256195,299.247375 
	C286.905090,297.772339 287.052032,295.967316 288.709473,295.090851 
	C296.596741,298.183655 297.224426,299.469269 294.661469,307.237000 
	C289.769806,322.062531 278.500671,329.714294 263.752991,327.815369 
M257.381744,298.638092 
	C259.759430,295.176544 263.316376,292.558167 265.064301,288.322296 
	C261.349701,286.559875 258.608917,287.894226 256.542694,290.462341 
	C254.143051,293.444855 252.497009,296.815186 254.382065,300.748657 
	C255.854752,300.826843 256.298187,299.818024 257.381744,298.638092 
z"/>
<path fill="#000000" opacity="1.000000" stroke="none" 
	d="
M832.317261,650.370728 
	C825.333618,656.143860 817.930359,656.529968 809.972107,653.824341 
	C805.538879,652.317139 804.464417,650.116577 806.500061,645.628174 
	C810.198242,637.474548 813.323730,629.061218 816.661316,620.822815 
	C809.963257,617.152832 802.530090,619.361755 799.352051,625.661865 
	C797.297302,629.735229 796.763306,634.206970 796.212219,638.677368 
	C795.975891,640.594727 797.278931,643.901428 794.155334,643.900696 
	C791.080811,643.900024 786.975891,643.618042 786.160095,639.430359 
	C782.869324,622.539490 793.869873,603.248413 812.581543,604.792236 
	C823.182007,605.666809 832.602356,609.744385 837.063232,620.219788 
	C841.578796,630.823730 840.069580,641.046997 832.317261,650.370728 
M827.247070,629.113403 
	C826.831238,628.435669 826.652222,627.545471 825.207214,627.273987 
	C823.059387,632.016479 820.913879,636.845154 819.497986,642.289673 
	C823.401123,643.274170 825.325195,641.567810 826.750305,638.911438 
	C828.322144,635.981628 828.136353,632.887512 827.247070,629.113403 
z"/>
<path fill="#000000" opacity="1.000000" stroke="none" 
	d="
M818.241516,537.294678 
	C815.882629,537.358093 814.838623,536.183838 813.919067,534.671753 
	C807.774231,524.567505 808.321045,509.809784 815.200867,501.160919 
	C821.761169,492.913666 834.821167,489.790039 846.253601,493.734070 
	C858.211304,497.859344 866.055725,512.646423 862.784058,524.894470 
	C859.974426,535.412415 850.612000,541.531433 839.642578,540.273315 
	C836.304810,539.890503 835.588684,538.099182 835.656006,535.219849 
	C835.846497,527.066650 835.945435,518.911255 836.060364,510.756409 
	C836.078613,509.465210 836.671814,508.120667 835.603943,506.621490 
	C831.040344,505.945068 827.395325,507.951874 824.463013,511.365051 
	C821.442078,514.881531 820.748596,519.171814 821.578308,523.587952 
	C822.368103,527.791992 823.577454,531.917236 824.569214,535.942749 
	C822.676208,537.845886 820.570374,537.082275 818.241516,537.294678 
M848.041626,526.063782 
	C853.884277,521.994751 853.268188,513.750854 846.325684,510.136749 
	C846.929321,515.653931 845.033264,520.947083 848.041626,526.063782 
z"/>
<path fill="#000000" opacity="1.000000" stroke="none" 
	d="
M698.161499,214.840317 
	C699.181580,215.457260 699.893494,215.887894 700.601746,216.324570 
	C705.680603,219.456131 705.859924,224.182953 701.156860,227.960953 
	C699.540161,229.259613 698.446045,228.168442 697.105103,227.601273 
	C693.537537,226.092300 690.626282,221.441788 686.682983,223.005997 
	C683.324402,224.338287 682.386780,229.081543 680.342407,232.288712 
	C678.738098,234.805481 677.227478,237.422363 676.032837,240.151321 
	C673.571960,245.772766 675.217285,248.980225 681.140015,250.528610 
	C683.042114,251.025879 685.145081,250.774887 686.829895,252.016968 
	C686.565735,260.454315 683.604248,262.686859 675.629395,260.630219 
	C672.702576,259.875397 669.947266,258.754578 667.335938,257.263031 
	C659.570190,252.827332 657.540588,247.292755 660.463379,238.853470 
	C663.158813,231.070724 667.988586,224.419174 671.795166,217.225861 
	C672.325928,216.222824 672.831360,215.206375 673.495605,213.909042 
	C668.377991,211.608521 668.886353,208.738754 671.334290,204.460999 
	C673.886902,200.000519 676.322693,202.135605 679.700562,203.739197 
	C682.389771,199.284332 685.169617,195.010376 687.596191,190.544495 
	C689.251953,187.497253 691.023315,186.944580 693.944214,188.852051 
	C703.372437,195.009003 704.205322,192.061661 697.677063,202.905396 
	C696.990906,204.045166 696.427490,205.280121 695.611084,206.316406 
	C692.592712,210.147690 693.380859,212.876999 698.161499,214.840317 
z"/>
<path fill="#000000" opacity="1.000000" stroke="none" 
	d="
M824.625488,574.551514 
	C832.684143,579.589111 840.383484,584.560791 848.247742,589.256165 
	C851.300903,591.079102 852.463379,593.151550 851.398193,596.625549 
	C850.440979,599.747437 850.637939,603.195740 849.042358,606.004700 
	C847.040588,606.747925 845.957581,605.453674 844.782654,604.650635 
	C832.405701,596.191223 820.109680,587.611816 807.657410,579.265259 
	C804.742798,577.311707 803.785522,575.354126 804.631775,571.861694 
	C807.753052,558.979492 804.846191,561.196838 817.994385,558.490234 
	C830.386841,555.939270 842.796509,553.471741 855.202026,550.984558 
	C856.646301,550.695007 858.112671,550.234985 859.890686,551.097168 
	C860.271484,555.504456 858.740723,559.736816 857.709778,563.997864 
	C857.197083,566.116638 855.011047,566.105469 853.179077,566.401306 
	C842.872803,568.065674 832.575439,569.785828 822.321411,571.479370 
	C822.164978,573.351135 823.612122,573.576172 824.625488,574.551514 
z"/>
<path fill="#000000" opacity="1.000000" stroke="none" 
	d="
M186.720718,550.435181 
	C181.606354,549.312927 176.926575,548.128296 172.189331,547.255493 
	C168.526352,546.580627 166.674927,544.809509 166.587555,540.929932 
	C166.514465,537.684570 165.002640,534.490601 166.033600,530.996338 
	C170.125366,531.020874 173.634995,532.679016 177.290802,533.623352 
	C189.060165,536.663147 200.788300,539.863953 212.571396,542.848450 
	C216.138885,543.752075 218.836014,545.079651 218.604156,549.345642 
	C218.586990,549.661194 218.814819,549.982605 218.848709,550.309570 
	C220.067978,562.073669 222.469666,559.038025 212.326675,565.129272 
	C201.045059,571.904419 189.765305,578.682739 178.461792,585.421143 
	C177.080200,586.244812 175.852676,587.564819 173.617950,587.228821 
	C171.516922,583.108765 171.701736,578.403381 171.342453,573.871094 
	C171.171448,571.713989 173.540436,571.173950 175.102142,570.317505 
	C184.275970,565.286438 193.468246,560.289001 203.249084,554.955933 
	C197.763870,552.363098 192.217117,552.209473 186.720718,550.435181 
z"/>
<path fill="#000000" opacity="1.000000" stroke="none" 
	d="
M779.954224,650.918579 
	C803.073242,663.904541 825.820374,676.798889 848.714050,689.427734 
	C852.660706,691.604858 853.333130,693.679749 850.682617,697.101257 
	C850.380676,697.491028 850.204041,697.976868 849.960449,698.413208 
	C846.218506,705.117432 846.223938,705.107056 839.559570,701.372742 
	C817.911255,689.242310 796.316040,677.014709 774.556824,665.086548 
	C770.366943,662.789734 769.813110,660.603760 772.451843,656.952881 
	C773.616272,655.341858 774.501770,653.523743 775.457764,651.769104 
	C776.492004,649.870911 777.912048,649.751221 779.954224,650.918579 
z"/>
<path fill="#000000" opacity="1.000000" stroke="none" 
	d="
M521.902588,175.138611 
	C522.588867,160.360336 523.212280,146.059784 523.987793,131.767502 
	C524.104309,129.620209 523.488403,126.383682 526.546326,125.999840 
	C530.407227,125.515190 534.564087,124.713463 538.206665,126.940727 
	C539.589844,127.786476 539.222290,129.660675 539.144104,131.138611 
	C537.930786,154.067749 536.682373,176.995056 535.479248,199.924713 
	C535.304871,203.249313 535.299622,206.583710 535.259644,209.914093 
	C535.230530,212.336685 534.231995,213.401596 531.636597,213.530045 
	C520.622498,214.075119 520.524719,214.129013 520.816284,203.068344 
	C521.057617,193.915512 521.523071,184.768585 521.902588,175.138611 
z"/>
<path fill="#000000" opacity="1.000000" stroke="none" 
	d="
M220.627686,459.326782 
	C219.562668,466.908936 219.575974,466.832672 212.485046,465.595093 
	C188.605377,461.427429 164.706543,457.368591 140.842758,453.112701 
	C138.408279,452.678558 134.596283,453.486938 133.911194,450.437439 
	C133.048218,446.596191 134.292953,442.522308 135.755066,438.816650 
	C136.426559,437.114746 138.354050,437.746918 139.790009,437.992798 
	C165.012390,442.311646 190.235703,446.625519 215.446899,451.009003 
	C221.730225,452.101501 221.813934,452.366302 220.627686,459.326782 
z"/>
<path fill="#000000" opacity="1.000000" stroke="none" 
	d="
M563.892456,204.649170 
	C563.682800,205.737259 563.506836,206.386276 563.445557,207.045929 
	C562.290649,219.483185 561.475708,216.530350 552.430054,215.463928 
	C549.221741,215.085693 547.818054,214.237198 548.363892,210.445129 
	C552.032959,184.956955 555.495117,159.438309 558.868286,133.908920 
	C559.471741,129.341934 561.662231,127.918625 565.911316,128.893234 
	C567.206543,129.190323 568.522156,129.581207 569.832275,129.596237 
	C573.834351,129.642090 574.318542,131.715607 573.809387,135.193069 
	C570.442810,158.187225 567.237366,181.204971 563.892456,204.649170 
z"/>
<path fill="#000000" opacity="1.000000" stroke="none" 
	d="
M754.638794,291.472717 
	C743.235779,301.338348 744.658569,308.024536 760.494751,320.649902 
	C757.509033,328.246368 754.020203,329.603912 747.473572,325.716675 
	C737.836975,319.994720 731.463074,307.436432 733.396545,297.981354 
	C735.839478,286.035706 746.028503,276.505524 758.034485,274.936584 
	C769.151184,273.483856 785.493713,284.982330 787.924194,295.901245 
	C788.289978,297.544922 788.143127,298.970001 786.756104,299.908508 
	C784.459717,301.462341 782.592224,303.765747 779.178162,304.362579 
	C775.928955,298.101837 772.809998,291.407013 765.009033,289.502380 
	C761.479492,288.640625 758.056030,289.277313 754.638794,291.472717 
z"/>
<path fill="#000000" opacity="1.000000" stroke="none" 
	d="
M299.236115,254.433823 
	C298.686279,261.061890 300.939667,266.167694 305.101471,270.710052 
	C309.470612,275.478729 313.571350,280.493317 318.083344,285.742432 
	C314.756042,289.350250 311.439758,292.438782 307.228607,295.351105 
	C302.187134,289.634064 297.362213,284.167542 292.542847,278.696136 
	C287.259094,272.697571 282.035065,266.645111 276.671112,260.719208 
	C274.705109,258.547241 274.438141,256.836639 276.967072,254.970779 
	C278.434509,253.888092 279.813141,252.642136 281.054047,251.304764 
	C283.277924,248.907990 285.555328,247.931656 288.346436,251.109924 
	C289.600281,244.802017 290.122406,237.873901 296.803192,236.521500 
	C301.610291,235.548370 302.408997,242.055130 306.022522,244.685684 
	C302.899414,247.653458 299.270691,249.629684 299.236115,254.433823 
z"/>
<path fill="#000000" opacity="1.000000" stroke="none" 
	d="
M626.283325,793.692017 
	C625.431458,791.484314 624.729980,789.629944 623.989563,787.672485 
	C627.141418,784.667969 631.140991,783.924194 634.782654,782.463745 
	C637.047852,781.555298 637.750488,783.223389 638.382874,784.781189 
	C643.760010,798.026367 649.055786,811.304871 654.497925,824.523193 
	C655.758179,827.584045 654.842163,829.232422 651.899963,830.193420 
	C650.795715,830.554138 649.712952,830.998596 648.655945,831.482422 
	C645.170044,833.078003 641.617798,835.053040 640.151123,827.677917 
	C637.787903,835.275146 634.595825,841.176636 627.791321,840.700684 
	C622.927063,840.360413 624.013184,833.832397 621.907288,830.366760 
	C633.550781,823.451111 635.508362,817.523010 630.613953,804.730835 
	C629.247253,801.158752 627.828552,797.606628 626.283325,793.692017 
z"/>
<path fill="#000000" opacity="1.000000" stroke="none" 
	d="
M572.963379,812.808533 
	C572.566650,813.384705 572.374023,813.654419 572.181702,813.924255 
	C567.212280,820.896545 563.524902,821.000061 557.893127,814.414062 
	C557.010498,813.381897 556.748352,812.456360 557.431458,811.299988 
	C557.852234,810.587708 558.286804,809.882202 558.745605,809.193970 
	C563.431702,802.164368 568.161743,802.103638 573.313171,808.905945 
	C574.356689,810.283936 573.902283,811.333252 572.963379,812.808533 
z"/>
<path fill="#000000" opacity="1.000000" stroke="none" 
	d="
M357.151733,246.036285 
	C357.364197,245.002090 357.513947,244.355026 357.680725,243.712372 
	C359.860718,235.312668 363.552246,233.903687 370.972748,238.516602 
	C372.161774,239.255753 372.627502,240.078888 372.363953,241.346451 
	C372.128296,242.479828 371.881836,243.630142 371.458862,244.701416 
	C370.545349,247.015137 371.110382,251.119095 367.817322,250.917221 
	C364.041321,250.685760 359.386658,250.897614 357.151733,246.036285 
z"/>
</svg>